<?xml version="1.0" encoding="UTF-8"?><svg id="Layer_1" xmlns="http://www.w3.org/2000/svg" viewBox="0 0 72 72"><defs><style>.cls-1{fill:#010101;fill-rule:evenodd;}</style></defs><path class="cls-1" d="M34.63,65.2c-5.33,0-9.33-.93-13.91-3.22-.73-.36-1.61-.85-2.28-1.3-1.87-1.25-3.38-2.37-4.97-3.96-1.1-1.09-2.41-2.61-3.28-3.87-.14-.2-.22-.32-.35-.51l-1.04-1.67c-.45-.74-.83-1.55-1.23-2.34-1.61-3.19-2.71-8.12-2.71-11.57,0-4.49.34-6.6,1.66-10.53l1.03-2.54c1.7-3.36,2.99-5.5,5.86-8.36.8-.8,1.91-1.78,2.82-2.48l2.11-1.47c3.01-1.84,5.3-2.89,8.76-3.75,4.53-1.13,9.51-1.13,14.05,0,.98.25,1.88.5,2.76.82,2.29.83,5.12,2.2,7.07,3.66l2.02,1.56c.21.16.28.26.46.4l.98.87c1.37,1.36,1.81,1.93,2.95,3.33l1.47,2.1c1.6,2.62,1.81,3.25,2.91,6.02.17.43.32.92.44,1.35,1.68,5.98,1.58,11.13-.19,17.14-.6,2.03-1.48,3.82-2.48,5.64l-1.39,2.19c-.61.82-1.69,2.3-2.38,2.98-.35.34-.99,1.1-1.33,1.38l-1.17,1.05c-.92.86-3.33,2.54-4.47,3.17-1.23.68-2.34,1.27-3.64,1.78-.45.18-.84.31-1.29.49-.45.18-.87.29-1.35.43-2.48.72-5,1.21-7.85,1.21h0ZM1.7,35.9c0,7.5,2.5,14.51,7.08,20.26.16.2.31.37.48.57,1.22,1.54,3,3.19,4.57,4.48,1.53,1.25,2.58,1.88,4.22,2.87l2.69,1.37c.23.09.44.2.69.3.79.31,1.29.54,2.18.84,6.21,2.05,12.99,2.37,19.28.52,1.2-.35,1.87-.56,3.04-1.03.5-.2.97-.37,1.43-.6,2.16-1.09,3.08-1.47,5.16-2.91,3.58-2.47,5.68-4.79,8.12-8.08l1.57-2.49c.25-.45.48-.84.72-1.31,1.22-2.44,2.07-4.69,2.71-7.39.2-.85.53-2.62.6-3.46.3-3.57.35-3.96,0-7.57-.36-3.71-1.59-7.53-3.25-10.85-.24-.47-.45-.89-.71-1.32-.84-1.39-1.37-2.32-2.43-3.67l-1.12-1.4c-.63-.71-2.11-2.34-2.72-2.83-.39-.31-.68-.62-1.09-.94-.65-.51-.93-.79-1.69-1.33-1.62-1.13-2.6-1.82-4.42-2.73-1.39-.69-2.74-1.31-4.24-1.8-1.04-.34-2.04-.65-3.16-.91-6.34-1.45-13.19-.99-19.17,1.4-3.01,1.21-5.22,2.46-7.77,4.37-.2.15-.38.27-.56.42l-1.36,1.17c-1.06.94-1.39,1.33-2.31,2.25-.91.9-2.85,3.48-3.5,4.57-.25.42-.51.82-.77,1.26l-1.04,1.98c-.11.27-.24.46-.34.7-1.63,3.65-2.9,8.03-2.9,13.29h0Z"/><path class="cls-1" d="M29.25,42.89c-.01-4.62-.04-9.34-.02-13.94v-.16s12.35,7.02,12.35,7.02c-.11.21-1.2.76-1.49.93-.88.52-10.72,6.16-10.84,6.16h0ZM30.42,19.26c-3.98.05-10.31.22-14.25.87-1.06.18-1.89.48-2.74,1.02-1.22.77-2.14,2.15-2.48,3.86-.85,4.23-.95,9.92-.79,14.2.1,2.65.35,6.57,1.25,8.82,1.08,2.72,3.48,3.48,6.3,3.8,1.56.18,3.16.23,4.74.32,6.75.38,22.96.55,29.12-.55.99-.18,1.9-.52,2.7-1.05,1.19-.78,2.1-2.21,2.43-3.91.28-1.45.48-2.94.61-4.44.28-3.19.38-6.49.23-9.71-.12-2.47-.41-6.74-1.28-8.78-.46-1.09-1.31-2.12-2.31-2.74-2.08-1.28-6.18-1.3-8.69-1.42-4.87-.23-9.97-.34-14.83-.28h0Z"/></svg>